<svg xmlns="http://www.w3.org/2000/svg" width="614" height="215" viewBox="0 0 614 215" version="1.1"><path d="M 211.245 105.250 L 211.500 210.500 214 210.500 L 216.500 210.500 216.755 105.250 L 217.009 0 214 0 L 210.991 0 211.245 105.250 M 89.207 17.851 C 88.487 18.308, 90.362 18.469, 93.433 18.214 C 98.917 17.759, 99.068 17.823, 116.727 28.063 C 126.502 33.731, 135.625 39.044, 137 39.868 C 138.375 40.692, 139.050 40.872, 138.500 40.267 C 137.950 39.662, 128.970 34.179, 118.545 28.083 C 101.894 18.347, 99.037 17.002, 95.045 17.015 C 92.545 17.024, 89.918 17.400, 89.207 17.851 M 282.892 19.354 C 279.808 20.623, 275.983 22.593, 274.392 23.733 C 272.802 24.872, 270.514 26.862, 269.308 28.155 C 268.102 29.448, 265.852 33.205, 264.308 36.503 C 261.842 41.769, 261.502 43.658, 261.518 52 C 261.534 60.125, 261.915 62.313, 264.153 67.120 C 265.593 70.211, 268.384 74.526, 270.355 76.708 C 272.547 79.134, 276.744 81.969, 281.151 84 C 286.565 86.495, 290.190 87.441, 295.699 87.794 C 299.855 88.061, 305.740 87.699, 309.269 86.959 C 312.696 86.241, 316.946 85.057, 318.713 84.329 C 320.480 83.600, 323.517 81.607, 325.463 79.899 C 327.408 78.190, 329 76.195, 329 75.464 C 329 74.733, 328.100 73.849, 326.999 73.500 C 325.768 73.109, 323.942 73.609, 322.249 74.802 C 320.737 75.867, 317.475 77.784, 315 79.060 C 311.480 80.876, 308.866 81.385, 303 81.398 C 298.875 81.406, 293.524 80.836, 291.108 80.130 C 288.147 79.265, 284.993 77.124, 281.428 73.558 C 277.024 69.154, 275.772 67.059, 273.941 61.031 C 272.338 55.753, 271.891 52.349, 272.291 48.471 C 272.593 45.544, 273.800 40.979, 274.974 38.325 C 276.147 35.671, 278.321 32.222, 279.804 30.661 C 281.287 29.099, 283.850 27.085, 285.500 26.185 C 287.150 25.284, 290.300 23.981, 292.500 23.289 C 294.700 22.597, 298.023 22.024, 299.884 22.015 C 301.745 22.007, 305.089 22.545, 307.314 23.212 C 309.571 23.889, 313.310 26.320, 315.772 28.712 C 318.938 31.790, 321.013 33, 323.123 33 C 324.768 33, 326.308 32.362, 326.619 31.550 C 326.925 30.753, 325.745 28.321, 323.998 26.147 C 322.008 23.670, 318.657 21.222, 315.035 19.596 C 309.990 17.332, 307.922 17.003, 298.875 17.024 C 290.364 17.043, 287.493 17.462, 282.892 19.354 M 426.490 19.250 C 426.188 20.488, 426.067 36.125, 426.221 54 L 426.500 86.500 430.717 86.806 C 434.541 87.083, 434.995 86.868, 435.590 84.497 C 436.242 81.900, 436.260 81.895, 438.373 83.803 C 439.543 84.859, 442.030 86.235, 443.899 86.861 C 445.769 87.488, 448.694 87.997, 450.399 87.994 C 452.105 87.991, 455.219 87.511, 457.321 86.928 C 459.422 86.344, 462.856 84.318, 464.951 82.425 C 467.047 80.532, 469.773 76.629, 471.011 73.753 C 472.570 70.129, 473.249 66.610, 473.220 62.297 C 473.197 58.873, 472.620 54.379, 471.937 52.310 C 471.254 50.241, 469.947 47.317, 469.033 45.813 C 468.118 44.309, 466.188 42.149, 464.743 41.013 C 463.299 39.876, 460.530 38.284, 458.591 37.473 C 456.651 36.663, 452.770 36, 449.966 36 C 447.163 36, 443.886 36.506, 442.684 37.125 C 441.483 37.744, 439.488 39.172, 438.250 40.299 L 436 42.349 436 30.874 C 436 23.283, 435.594 18.994, 434.800 18.200 C 434.140 17.540, 432.124 17, 430.319 17 C 427.746 17, 426.920 17.485, 426.490 19.250 M 84.441 20.555 C 82.577 22.049, 82.589 22.067, 84.750 21.020 C 85.987 20.420, 87 19.720, 87 19.465 C 87 19.209, 86.861 19, 86.691 19 C 86.521 19, 85.509 19.700, 84.441 20.555 M 80.405 23.155 C 79.962 23.870, 80.130 24.038, 80.845 23.595 C 81.480 23.203, 82 22.684, 82 22.441 C 82 22.198, 81.802 22, 81.559 22 C 81.316 22, 80.797 22.520, 80.405 23.155 M 78 24.500 C 78 24.775, 78.225 25, 78.500 25 C 78.775 25, 79 24.775, 79 24.500 C 79 24.225, 78.775 24, 78.500 24 C 78.225 24, 78 24.225, 78 24.500 M 73.750 26.572 C 72.237 27.393, 71 28.286, 71 28.558 C 71 28.829, 72.350 28.353, 74 27.500 C 75.650 26.647, 77 25.735, 77 25.474 C 77 25.213, 76.888 25.018, 76.750 25.040 C 76.612 25.062, 75.263 25.751, 73.750 26.572 M 67.441 30.555 C 65.577 32.049, 65.589 32.067, 67.750 31.020 C 68.987 30.420, 70 29.720, 70 29.465 C 70 29.209, 69.861 29, 69.691 29 C 69.521 29, 68.509 29.700, 67.441 30.555 M 61.750 33.572 C 60.237 34.393, 59 35.286, 59 35.558 C 59 35.829, 60.350 35.353, 62 34.500 C 63.650 33.647, 65 32.735, 65 32.474 C 65 32.213, 64.888 32.018, 64.750 32.040 C 64.612 32.062, 63.263 32.751, 61.750 33.572 M 41 45.628 C 31.925 50.913, 23.488 56.163, 22.250 57.293 C 21.012 58.424, 20 59.820, 20 60.397 C 20 60.973, 20.676 60.481, 21.501 59.302 C 22.327 58.123, 30.877 52.574, 40.501 46.971 C 50.126 41.368, 58 36.607, 58 36.392 C 58 36.176, 57.888 36.004, 57.750 36.010 C 57.612 36.015, 50.075 40.343, 41 45.628 M 346 37.114 C 344.625 37.656, 341.813 39.264, 339.750 40.686 C 337.688 42.108, 336 43.807, 336 44.462 C 336 45.116, 337.042 46.630, 338.314 47.826 C 339.587 49.022, 340.955 50, 341.355 50 C 341.754 50, 343.754 48.241, 345.799 46.091 C 348.274 43.489, 350.775 41.945, 353.276 41.476 C 355.558 41.048, 358.177 41.245, 359.945 41.977 C 361.870 42.775, 363.388 44.513, 364.428 47.112 C 365.293 49.273, 366 52.156, 366 53.520 C 366 54.884, 365.605 56, 365.122 56 C 364.639 56, 362.629 55.325, 360.654 54.500 C 358.680 53.675, 354.782 53, 351.992 53 C 348.988 53, 345.408 53.772, 343.210 54.894 C 341.170 55.935, 338.730 57.639, 337.788 58.680 C 336.847 59.721, 335.384 62.230, 334.538 64.254 C 333.692 66.279, 333.003 68.963, 333.006 70.218 C 333.009 71.473, 333.471 74.155, 334.032 76.177 C 334.594 78.199, 336.602 81.402, 338.496 83.296 C 340.389 85.189, 343.358 87.022, 345.094 87.369 C 346.830 87.716, 349.977 88, 352.088 88 C 354.199 88, 358.153 87.122, 360.875 86.049 C 365.076 84.393, 365.908 84.318, 366.381 85.549 C 366.716 86.424, 368.290 87, 370.346 87 C 372.221 87, 374.169 86.438, 374.675 85.750 C 375.206 85.028, 375.364 76.258, 375.048 65 C 374.527 46.467, 374.381 45.333, 372.101 42.137 C 370.782 40.287, 368.209 38.150, 366.383 37.387 C 364.517 36.607, 359.876 36.028, 355.782 36.063 C 351.777 36.098, 347.375 36.571, 346 37.114 M 389.460 38.358 C 389.172 39.536, 389.063 50.850, 389.218 63.500 L 389.500 86.500 394 86.500 L 398.500 86.500 399 67.667 L 399.500 48.835 402.766 45.917 C 404.562 44.313, 406.838 43, 407.825 43 C 408.811 43, 410.491 43.661, 411.559 44.468 C 412.626 45.276, 414.011 45.951, 414.635 45.968 C 415.259 45.986, 416.492 44.899, 417.374 43.552 C 418.256 42.206, 418.733 40.467, 418.434 39.688 C 418.135 38.909, 416.769 37.760, 415.398 37.135 C 414.027 36.511, 411.162 36, 409.030 36 C 406.355 36, 404.233 36.774, 402.185 38.498 L 399.216 40.996 398.638 38.695 C 398.160 36.790, 397.366 36.378, 394.022 36.305 C 390.686 36.231, 389.893 36.588, 389.460 38.358 M 496.500 38.366 C 493.750 39.657, 490.305 41.922, 488.844 43.399 C 487.383 44.877, 485.412 47.719, 484.465 49.716 C 483.517 51.712, 482.514 56.185, 482.236 59.654 C 481.932 63.432, 482.263 67.874, 483.059 70.731 C 484.006 74.125, 485.846 76.957, 489.445 80.555 C 493.045 84.156, 495.874 85.994, 499.274 86.942 C 502.156 87.746, 506.417 88.059, 510.024 87.731 C 513.828 87.387, 517.572 86.269, 520.321 84.658 C 522.696 83.266, 525.828 80.410, 527.279 78.313 C 528.731 76.216, 530.590 72.591, 531.412 70.259 C 532.271 67.819, 532.780 63.571, 532.611 60.259 C 532.435 56.813, 531.437 52.785, 530.127 50.229 C 528.923 47.880, 526.489 44.556, 524.719 42.843 C 522.949 41.129, 519.700 38.899, 517.500 37.886 C 515.040 36.753, 511.190 36.039, 507.500 36.032 C 503.272 36.023, 500.023 36.713, 496.500 38.366 M 546.141 37.143 C 543.977 37.944, 543.966 38.089, 544.232 62.224 L 544.500 86.500 547.877 86.823 C 549.735 87, 551.760 86.642, 552.377 86.025 C 553.083 85.321, 553.686 78.276, 554 67.055 C 554.449 51.028, 554.704 48.976, 556.500 46.964 C 557.600 45.732, 560.009 44.086, 561.854 43.305 C 563.698 42.525, 566.398 42.154, 567.854 42.481 C 569.309 42.808, 571.625 43.932, 573 44.978 C 575.485 46.870, 575.503 46.997, 576 66.691 L 576.500 86.500 580.086 86.801 C 582.377 86.993, 584.126 86.553, 584.932 85.583 C 585.873 84.448, 586.104 79.445, 585.846 65.782 C 585.541 49.680, 585.262 47.095, 583.500 44.105 C 582.400 42.237, 580.230 39.762, 578.677 38.605 C 576.421 36.923, 574.411 36.500, 568.677 36.500 C 562.835 36.500, 560.913 36.919, 558.346 38.750 C 556.611 39.987, 554.698 41, 554.096 41 C 553.493 41, 553 40.152, 553 39.117 C 553 37.936, 552.127 37.066, 550.659 36.786 C 549.372 36.540, 547.339 36.701, 546.141 37.143 M 140 41.500 C 140 41.775, 140.225 42, 140.500 42 C 140.775 42, 141 41.775, 141 41.500 C 141 41.225, 140.775 41, 140.500 41 C 140.225 41, 140 41.225, 140 41.500 M 502.445 42.025 C 500.765 42.537, 498.364 44.048, 497.110 45.383 C 495.856 46.718, 494.223 49.541, 493.481 51.655 C 492.702 53.879, 492.231 58.663, 492.365 63 C 492.516 67.874, 493.252 71.854, 494.468 74.368 C 495.498 76.495, 497.726 79.081, 499.420 80.114 C 501.391 81.316, 504.378 81.994, 507.715 81.996 C 512.121 81.999, 513.477 81.520, 516.451 78.909 C 518.642 76.985, 520.398 74.246, 521.100 71.659 C 521.720 69.371, 522.167 64.359, 522.092 60.520 C 522 55.782, 521.305 52.196, 519.929 49.353 C 518.814 47.050, 516.831 44.464, 515.521 43.606 C 514.212 42.748, 511.422 41.832, 509.320 41.570 C 507.219 41.308, 504.125 41.512, 502.445 42.025 M 142 42.430 C 142 42.705, 142.900 43.411, 144 44 C 145.100 44.589, 146 44.845, 146 44.570 C 146 44.295, 145.100 43.589, 144 43 C 142.900 42.411, 142 42.155, 142 42.430 M 446 42.734 C 444.625 42.974, 442.260 44.344, 440.744 45.778 C 439.228 47.213, 437.543 49.987, 436.999 51.943 C 436.456 53.899, 436.009 58.780, 436.006 62.790 C 436.002 68.098, 436.540 71.138, 437.987 73.974 C 439.079 76.116, 440.979 78.573, 442.209 79.434 C 443.439 80.295, 446.116 81, 448.157 81 C 450.199 81, 452.967 80.583, 454.308 80.073 C 455.649 79.563, 457.708 77.590, 458.884 75.688 C 460.059 73.786, 461.513 69.778, 462.115 66.780 C 462.924 62.752, 462.906 59.866, 462.047 55.725 C 461.407 52.643, 459.951 48.936, 458.810 47.486 C 457.670 46.037, 455.784 44.494, 454.619 44.059 C 453.453 43.623, 451.600 43.049, 450.500 42.782 C 449.400 42.515, 447.375 42.493, 446 42.734 M 147 45.430 C 147 45.705, 147.900 46.411, 149 47 C 150.100 47.589, 151 47.845, 151 47.570 C 151 47.295, 150.100 46.589, 149 46 C 147.900 45.411, 147 45.155, 147 45.430 M 152 48.500 C 152 48.775, 152.225 49, 152.500 49 C 152.775 49, 153 48.775, 153 48.500 C 153 48.225, 152.775 48, 152.500 48 C 152.225 48, 152 48.225, 152 48.500 M 154 49.348 C 154 49.602, 156.851 51.479, 160.336 53.517 C 163.821 55.556, 167.409 58.411, 168.310 59.862 C 169.210 61.313, 169.959 61.972, 169.973 61.327 C 169.988 60.682, 168.702 58.882, 167.115 57.327 C 165.529 55.772, 161.929 53.237, 159.115 51.692 C 156.302 50.148, 154 49.093, 154 49.348 M 347.721 61.382 C 346.308 62.693, 344.615 65.553, 343.960 67.739 C 342.954 71.099, 343.032 72.266, 344.471 75.298 C 345.407 77.269, 347.320 79.635, 348.724 80.555 C 350.452 81.687, 352.496 82.063, 355.059 81.719 C 357.141 81.440, 359.973 80.376, 361.353 79.356 C 362.734 78.335, 364.344 76.466, 364.932 75.203 C 365.519 73.940, 366 71.780, 366 70.403 C 366 69.027, 365.328 66.600, 364.506 65.011 C 363.684 63.422, 362.009 61.419, 360.783 60.561 C 359.558 59.702, 356.696 59, 354.424 59 C 351.457 59, 349.567 59.672, 347.721 61.382 M 19 62.500 C 19 62.775, 19.225 63, 19.500 63 C 19.775 63, 20 62.775, 20 62.500 C 20 62.225, 19.775 62, 19.500 62 C 19.225 62, 19 62.225, 19 62.500 M 170.456 103 C 170.456 125.275, 170.588 134.388, 170.749 123.250 C 170.910 112.113, 170.910 93.888, 170.749 82.750 C 170.588 71.613, 170.456 80.725, 170.456 103 M 120 64.668 C 120.825 65.015, 121.872 65.795, 122.326 66.400 C 122.857 67.107, 123.006 66.965, 122.743 66 C 122.518 65.175, 121.472 64.395, 120.417 64.268 C 119.070 64.104, 118.946 64.223, 120 64.668 M 110.500 66 C 107.824 66.681, 107.770 66.763, 110 66.763 C 111.375 66.763, 113.850 66.420, 115.500 66 C 118.176 65.319, 118.230 65.237, 116 65.237 C 114.625 65.237, 112.150 65.580, 110.500 66 M 104.813 67.683 C 105.534 67.972, 106.397 67.936, 106.729 67.604 C 107.061 67.272, 106.471 67.036, 105.417 67.079 C 104.252 67.127, 104.015 67.364, 104.813 67.683 M 93.925 70.363 C 90.310 71.640, 85.014 73.956, 82.158 75.510 C 79.302 77.065, 76.411 79.031, 75.733 79.879 C 75.004 80.792, 75.726 80.574, 77.500 79.345 C 79.150 78.203, 82.075 76.450, 84 75.449 C 85.925 74.448, 91.100 72.384, 95.500 70.863 C 99.900 69.342, 102.825 68.085, 102 68.070 C 101.175 68.055, 97.541 69.087, 93.925 70.363 M 123 69 C 123 69.733, 123.300 70.033, 123.667 69.667 C 124.033 69.300, 124.033 68.700, 123.667 68.333 C 123.300 67.967, 123 68.267, 123 69 M 124 71.500 C 124 71.775, 124.225 72, 124.500 72 C 124.775 72, 125 71.775, 125 71.500 C 125 71.225, 124.775 71, 124.500 71 C 124.225 71, 124 71.225, 124 71.500 M 125 74 C 125 74.733, 125.300 75.033, 125.667 74.667 C 126.033 74.300, 126.033 73.700, 125.667 73.333 C 125.300 72.967, 125 73.267, 125 74 M 126 77 C 126 77.733, 126.300 78.033, 126.667 77.667 C 127.033 77.300, 127.033 76.700, 126.667 76.333 C 126.300 75.967, 126 76.267, 126 77 M 127 80 C 127 80.733, 127.300 81.033, 127.667 80.667 C 128.033 80.300, 128.033 79.700, 127.667 79.333 C 127.300 78.967, 127 79.267, 127 80 M 70.887 83.750 C 69.519 85.263, 67.805 87.287, 67.078 88.250 C 66.350 89.213, 65.940 90, 66.166 90 C 66.392 90, 68.269 87.975, 70.338 85.500 C 72.407 83.025, 73.936 81, 73.737 81 C 73.537 81, 72.255 82.237, 70.887 83.750 M 128 84 C 128 84.733, 128.300 85.033, 128.667 84.667 C 129.033 84.300, 129.033 83.700, 128.667 83.333 C 128.300 82.967, 128 83.267, 128 84 M 129.158 89 C 129.158 90.375, 129.385 90.938, 129.662 90.250 C 129.940 89.563, 129.940 88.438, 129.662 87.750 C 129.385 87.063, 129.158 87.625, 129.158 89 M 102.938 92.761 C 99.944 95.945, 99.608 96.508, 101.904 94.490 C 104.214 92.461, 105.108 92.063, 104.686 93.250 C 104.343 94.213, 104.262 95, 104.506 95 C 104.749 95, 105.668 93.608, 106.548 91.907 C 107.428 90.206, 107.974 88.640, 107.761 88.428 C 107.549 88.216, 105.378 90.166, 102.938 92.761 M 63.954 93.086 C 63.340 94.233, 63.026 95.360, 63.257 95.590 C 63.487 95.820, 64.189 94.882, 64.816 93.504 C 65.444 92.127, 65.758 91, 65.514 91 C 65.270 91, 64.568 91.939, 63.954 93.086 M 130.320 100 C 130.320 103.575, 130.502 105.037, 130.723 103.250 C 130.945 101.463, 130.945 98.537, 130.723 96.750 C 130.502 94.963, 130.320 96.425, 130.320 100 M 90 96.837 C 90 98.103, 90.445 98.843, 91 98.500 C 91.550 98.160, 92 98.434, 92 99.108 C 92 99.782, 92.271 100.062, 92.602 99.731 C 92.933 99.400, 92.483 98.100, 91.602 96.842 L 90 94.555 90 96.837 M 100.725 100.250 C 99.370 102.588, 97.476 106.075, 96.516 108 C 95.557 109.925, 95.203 111.050, 95.730 110.500 C 96.257 109.950, 98.355 106.463, 100.393 102.750 C 102.431 99.037, 103.894 96, 103.644 96 C 103.394 96, 102.081 97.912, 100.725 100.250 M 62 98 C 62 98.733, 62.300 99.033, 62.667 98.667 C 63.033 98.300, 63.033 97.700, 62.667 97.333 C 62.300 96.967, 62 97.267, 62 98 M 96.521 99.976 C 95.538 101.063, 94.343 101.712, 93.866 101.417 C 93.390 101.123, 93 101.332, 93 101.882 C 93 102.432, 93.378 103.116, 93.841 103.402 C 94.304 103.688, 95.667 102.589, 96.871 100.961 C 98.075 99.332, 98.891 98, 98.685 98 C 98.479 98, 97.505 98.889, 96.521 99.976 M 61.158 102 C 61.158 103.375, 61.385 103.938, 61.662 103.250 C 61.940 102.563, 61.940 101.438, 61.662 100.750 C 61.385 100.063, 61.158 100.625, 61.158 102 M 91.079 103.583 C 91.127 104.748, 91.364 104.985, 91.683 104.188 C 91.972 103.466, 91.936 102.603, 91.604 102.271 C 91.272 101.939, 91.036 102.529, 91.079 103.583 M 60.158 109 C 60.158 110.375, 60.385 110.938, 60.662 110.250 C 60.940 109.563, 60.940 108.438, 60.662 107.750 C 60.385 107.063, 60.158 107.625, 60.158 109 M 90.381 108.250 C 89.976 108.938, 88.937 110.608, 88.072 111.961 C 87.094 113.492, 86.975 114.130, 87.757 113.648 C 88.449 113.222, 89.698 111.552, 90.533 109.937 C 91.368 108.321, 91.841 107, 91.585 107 C 91.328 107, 90.786 107.563, 90.381 108.250 M 129.079 110.583 C 129.127 111.748, 129.364 111.985, 129.683 111.188 C 129.972 110.466, 129.936 109.603, 129.604 109.271 C 129.272 108.939, 129.036 109.529, 129.079 110.583 M 61 113 C 61 113.733, 61.300 114.033, 61.667 113.667 C 62.033 113.300, 62.033 112.700, 61.667 112.333 C 61.300 111.967, 61 112.267, 61 113 M 93.564 113.707 C 93.022 115.132, 93.136 115.247, 94.124 114.267 C 94.808 113.588, 95.115 112.781, 94.807 112.474 C 94.499 112.166, 93.940 112.721, 93.564 113.707 M 128.079 113.668 C 128.036 114.311, 127.741 115.661, 127.424 116.668 C 126.877 118.409, 126.906 118.412, 127.995 116.712 C 128.626 115.729, 128.920 114.379, 128.650 113.712 C 128.295 112.837, 128.136 112.825, 128.079 113.668 M 85 117 C 84.411 118.100, 84.155 119, 84.430 119 C 84.705 119, 85.411 118.100, 86 117 C 86.589 115.900, 86.845 115, 86.570 115 C 86.295 115, 85.589 115.900, 85 117 M 61.158 118 C 61.158 119.375, 61.385 119.938, 61.662 119.250 C 61.940 118.563, 61.940 117.438, 61.662 116.750 C 61.385 116.063, 61.158 116.625, 61.158 118 M 92 116.500 C 92 116.775, 92.225 117, 92.500 117 C 92.775 117, 93 116.775, 93 116.500 C 93 116.225, 92.775 116, 92.500 116 C 92.225 116, 92 116.225, 92 116.500 M 91 118.500 C 91 118.775, 91.225 119, 91.500 119 C 91.775 119, 92 118.775, 92 118.500 C 92 118.225, 91.775 118, 91.500 118 C 91.225 118, 91 118.225, 91 118.500 M 123.236 124.280 C 121.441 127.024, 120.648 128.707, 121.474 128.022 C 122.300 127.336, 123.933 125.227, 125.102 123.335 C 126.271 121.443, 127.064 119.759, 126.864 119.593 C 126.664 119.427, 125.031 121.536, 123.236 124.280 M 261.667 119.667 C 261.300 120.033, 261 135.278, 261 153.544 C 261 181.719, 261.226 186.942, 262.487 187.989 C 263.305 188.668, 264.655 188.963, 265.487 188.643 C 266.782 188.146, 267 184.430, 267 162.817 C 267 141.211, 267.201 137.783, 268.392 139.036 C 269.158 139.841, 271.345 143.425, 273.252 147 C 275.159 150.575, 280.856 161.475, 285.911 171.223 C 290.966 180.970, 295.572 189.236, 296.147 189.591 C 296.722 189.946, 297.785 189.621, 298.509 188.868 C 299.234 188.116, 301.044 185.293, 302.532 182.595 C 304.020 179.897, 306.685 174.947, 308.454 171.595 C 310.223 168.243, 313.259 162.575, 315.200 159 C 317.141 155.425, 320.703 148.900, 323.115 144.500 L 327.500 136.500 328 162.500 L 328.500 188.500 332.320 188.815 C 334.421 188.988, 336.783 188.595, 337.570 187.942 C 338.757 186.957, 338.997 181.216, 338.985 154.128 C 338.976 136.182, 338.593 120.906, 338.133 120.181 C 337.617 119.367, 335.874 118.984, 333.581 119.181 C 329.993 119.489, 329.691 119.827, 324.815 129 C 322.038 134.225, 317.163 143.450, 313.982 149.500 C 310.800 155.550, 306.420 163.628, 304.248 167.450 C 302.076 171.273, 299.882 174.539, 299.373 174.709 C 298.864 174.879, 296.785 171.751, 294.752 167.759 C 292.720 163.766, 287.867 154.466, 283.968 147.092 C 280.069 139.718, 275.065 130.380, 272.849 126.342 C 269.125 119.557, 268.573 119, 265.576 119 C 263.793 119, 262.033 119.300, 261.667 119.667 M 445.607 120.582 C 445.273 121.452, 445.007 136.639, 445.015 154.332 C 445.024 172.024, 445.407 187.094, 445.867 187.819 C 446.391 188.646, 448.159 189.019, 450.602 188.819 L 454.500 188.500 454.785 178.842 C 455.054 169.718, 455.212 169.091, 457.642 167.499 C 459.056 166.572, 460.527 166.193, 460.911 166.657 C 461.294 167.121, 464.258 170.875, 467.496 175 C 470.735 179.125, 474.668 183.892, 476.236 185.593 C 478.622 188.181, 479.901 188.715, 484.068 188.862 C 487.719 188.991, 489.204 188.633, 489.631 187.518 C 490.002 186.552, 487.535 182.811, 482.857 177.249 C 478.811 172.437, 474.931 167.899, 474.235 167.163 C 473.539 166.428, 471.852 164.361, 470.485 162.569 C 469.118 160.777, 468 158.668, 468 157.882 C 468 157.096, 471.600 152.874, 476 148.500 C 480.400 144.126, 484 139.974, 484 139.273 C 484 138.510, 482.731 138, 480.832 138 C 478.104 138, 476.089 139.619, 466.332 149.651 L 455 161.303 455 141.733 C 455 130.970, 454.727 121.452, 454.393 120.582 C 453.987 119.525, 452.530 119, 450 119 C 447.470 119, 446.013 119.525, 445.607 120.582 M 82.278 121.250 C 81.746 121.938, 80.990 123.063, 80.597 123.750 C 80.204 124.438, 80.082 125, 80.326 125 C 80.570 125, 81.507 123.875, 82.408 122.500 C 83.309 121.125, 83.866 120, 83.645 120 C 83.425 120, 82.810 120.563, 82.278 121.250 M 88.500 123 C 87.647 124.650, 87.174 126, 87.449 126 C 87.724 126, 88.647 124.650, 89.500 123 C 90.353 121.350, 90.826 120, 90.551 120 C 90.276 120, 89.353 121.350, 88.500 123 M 62.079 122.583 C 62.127 123.748, 62.364 123.985, 62.683 123.188 C 62.972 122.466, 62.936 121.603, 62.604 121.271 C 62.272 120.939, 62.036 121.529, 62.079 122.583 M 557.250 123.643 C 556.421 123.990, 556 126.496, 556 131.083 L 556 138 552 138 C 548.240 138, 548 138.177, 548 140.940 C 548 143.615, 548.337 143.907, 551.750 144.190 L 555.500 144.500 556 162.049 C 556.417 176.687, 556.798 180.052, 558.296 182.335 C 559.284 183.840, 562.038 186.016, 564.416 187.171 C 567.622 188.729, 569.675 189.096, 572.365 188.591 C 574.360 188.217, 577.209 186.864, 578.696 185.585 C 581.339 183.312, 581.361 183.200, 579.677 180.630 C 578.729 179.183, 577.341 178, 576.592 178 C 575.843 178, 574.493 179.125, 573.592 180.500 C 572.691 181.875, 571.076 183, 570.003 183 C 568.846 183, 567.420 181.779, 566.501 180.002 C 565.249 177.581, 565.003 173.875, 565.225 160.752 L 565.500 144.500 571 144 C 576.067 143.539, 576.500 143.303, 576.500 141 C 576.500 138.689, 576.103 138.477, 571.250 138.198 C 566.635 137.932, 565.989 137.630, 565.907 135.698 C 565.856 134.489, 565.885 131.667, 565.972 129.426 C 566.064 127.049, 565.582 124.951, 564.815 124.388 C 564.092 123.858, 562.375 123.356, 561 123.272 C 559.625 123.188, 557.938 123.355, 557.250 123.643 M 63 126 C 63 126.733, 63.300 127.033, 63.667 126.667 C 64.033 126.300, 64.033 125.700, 63.667 125.333 C 63.300 124.967, 63 125.267, 63 126 M 78 128 C 77.411 129.100, 77.155 130, 77.430 130 C 77.705 130, 78.411 129.100, 79 128 C 79.589 126.900, 79.845 126, 79.570 126 C 79.295 126, 78.589 126.900, 78 128 M 86 128.201 C 86 128.640, 87.575 129, 89.500 129 C 91.425 129, 93 128.824, 93 128.609 C 93 128.395, 91.425 128.035, 89.500 127.810 C 87.575 127.585, 86 127.761, 86 128.201 M 95.250 128.120 C 95.388 128.735, 93.925 129.826, 92 130.544 C 90.075 131.261, 88.982 131.882, 89.572 131.924 C 90.161 131.966, 92.748 131.283, 95.321 130.406 C 97.893 129.530, 100.250 128.405, 100.558 127.906 C 100.866 127.408, 99.741 127, 98.059 127 C 96.320 127, 95.108 127.483, 95.250 128.120 M 64.031 128.500 C 64.031 129.050, 64.467 130.175, 65 131 C 65.533 131.825, 65.969 132.050, 65.969 131.500 C 65.969 130.950, 65.533 129.825, 65 129 C 64.467 128.175, 64.031 127.950, 64.031 128.500 M 115 133.150 C 113.075 134.838, 112.405 135.762, 113.511 135.202 C 114.617 134.643, 116.375 133.244, 117.416 132.093 C 118.458 130.942, 119.128 130.018, 118.905 130.041 C 118.682 130.063, 116.925 131.462, 115 133.150 M 75 133 C 74.411 134.100, 74.155 135, 74.430 135 C 74.705 135, 75.411 134.100, 76 133 C 76.589 131.900, 76.845 131, 76.570 131 C 76.295 131, 75.589 131.900, 75 133 M 86.333 132.667 C 86.700 133.033, 87.300 133.033, 87.667 132.667 C 88.033 132.300, 87.733 132, 87 132 C 86.267 132, 85.967 132.300, 86.333 132.667 M 66 133.373 C 66 133.762, 66.909 135.862, 68.020 138.040 C 69.132 140.218, 70.235 142, 70.471 142 C 70.708 142, 70.094 140.195, 69.106 137.988 C 68.118 135.782, 67.015 133.682, 66.655 133.322 C 66.295 132.961, 66 132.985, 66 133.373 M 82.583 134.643 C 82.237 135.547, 82.093 136.426, 82.264 136.598 C 82.436 136.769, 83.125 136.030, 83.796 134.955 C 84.468 133.880, 84.611 133, 84.115 133 C 83.620 133, 82.930 133.739, 82.583 134.643 M 72 138 C 71.411 139.100, 71.155 140, 71.430 140 C 71.705 140, 72.411 139.100, 73 138 C 73.589 136.900, 73.845 136, 73.570 136 C 73.295 136, 72.589 136.900, 72 138 M 103.500 139.064 C 99.650 140.635, 97.046 141.939, 97.712 141.960 C 98.379 141.982, 101.408 141.071, 104.443 139.935 C 107.479 138.800, 110.222 137.450, 110.540 136.935 C 110.858 136.421, 110.979 136.047, 110.809 136.104 C 110.639 136.161, 107.350 137.493, 103.500 139.064 M 367.905 137.882 C 365.928 138.296, 362.830 139.504, 361.020 140.567 C 359.211 141.630, 357.075 143.492, 356.274 144.704 C 354.934 146.731, 355.038 147.129, 357.565 149.656 L 360.312 152.403 363.406 148.854 C 365.108 146.902, 367.483 144.786, 368.684 144.153 C 369.886 143.519, 372.598 143, 374.712 143 C 376.826 143, 379.538 143.688, 380.739 144.529 C 381.940 145.371, 383.387 147.733, 383.956 149.779 C 384.524 151.826, 384.991 154.774, 384.994 156.332 L 385 159.163 381.344 156.904 C 378.401 155.085, 376.351 154.669, 370.834 154.771 C 366.460 154.852, 362.990 155.492, 361.241 156.539 C 359.733 157.441, 357.302 159.736, 355.837 161.639 C 354.210 163.753, 352.908 167.031, 352.490 170.069 C 351.927 174.169, 352.218 175.868, 354.153 179.768 C 355.452 182.386, 358.063 185.545, 360 186.843 C 363.116 188.932, 364.377 189.144, 371.500 188.775 C 375.900 188.548, 380.487 187.738, 381.694 186.975 C 383.607 185.766, 384.129 185.807, 385.773 187.294 C 386.809 188.232, 388.844 189, 390.294 189 C 391.791 189, 393.322 188.244, 393.839 187.250 C 394.339 186.287, 394.792 180.911, 394.846 175.302 C 394.900 169.693, 394.569 161.036, 394.110 156.065 C 393.467 149.101, 392.728 146.224, 390.888 143.529 C 389.575 141.605, 387.258 139.596, 385.740 139.064 C 384.222 138.532, 380.397 137.879, 377.240 137.613 C 374.083 137.348, 369.882 137.469, 367.905 137.882 M 426.355 137.716 C 424.625 137.933, 422.418 138.986, 421.450 140.056 C 420.482 141.125, 419.362 142, 418.962 142 C 418.561 142, 417.991 141.072, 417.694 139.939 C 417.237 138.191, 416.497 137.925, 412.828 138.189 L 408.500 138.500 408.233 163.227 L 407.965 187.953 410.381 188.559 C 411.710 188.893, 413.855 189.016, 415.148 188.833 C 417.496 188.501, 417.501 188.471, 418 170.500 C 418.275 160.600, 418.904 151.825, 419.399 151 C 419.893 150.175, 421.209 148.488, 422.323 147.250 C 423.474 145.971, 425.515 145, 427.052 145 C 428.539 145, 430.315 145.675, 431 146.500 C 431.685 147.325, 432.854 148, 433.599 148 C 434.344 148, 435.649 146.938, 436.500 145.641 C 437.350 144.343, 437.775 142.578, 437.445 141.718 C 437.115 140.858, 435.350 139.445, 433.522 138.577 C 431.693 137.710, 430.041 137.072, 429.849 137.160 C 429.657 137.248, 428.085 137.498, 426.355 137.716 M 512.776 138.042 C 510.178 138.474, 506.726 139.771, 505.105 140.925 C 503.484 142.080, 501.001 144.398, 499.587 146.078 C 498.174 147.758, 496.281 151.664, 495.382 154.758 C 494.251 158.650, 493.925 162.292, 494.325 166.575 C 494.644 169.992, 495.852 174.499, 497.021 176.633 C 498.187 178.760, 500.571 181.748, 502.320 183.274 C 504.069 184.799, 507.075 186.752, 509 187.614 C 511.190 188.594, 515.356 189.180, 520.129 189.178 C 525.424 189.177, 528.789 188.643, 531.129 187.433 C 532.983 186.475, 535.737 184.775, 537.250 183.657 C 538.763 182.539, 540 180.857, 540 179.919 C 540 178.981, 539.255 177.928, 538.345 177.579 C 537.364 177.202, 535.224 177.951, 533.095 179.416 C 531.118 180.776, 528.233 182.363, 526.685 182.944 C 525.137 183.525, 522.339 184, 520.469 184 C 518.598 184, 515.573 183.287, 513.745 182.416 C 511.918 181.544, 509.409 179.351, 508.169 177.542 C 506.930 175.733, 505.650 172.621, 505.327 170.626 L 504.738 167 517.619 166.889 C 524.704 166.828, 532.750 166.715, 535.500 166.639 L 540.500 166.500 540.808 161.672 C 541.044 157.968, 540.424 155.367, 538.144 150.493 C 536.004 145.922, 534.097 143.447, 531.336 141.662 C 529.226 140.299, 525.925 138.883, 524 138.517 C 522.075 138.150, 519.825 137.717, 519 137.554 C 518.175 137.391, 515.374 137.611, 512.776 138.042 M 81 138.500 C 81 138.775, 81.225 139, 81.500 139 C 81.775 139, 82 138.775, 82 138.500 C 82 138.225, 81.775 138, 81.500 138 C 81.225 138, 81 138.225, 81 138.500 M 80 140.500 C 80 140.775, 80.225 141, 80.500 141 C 80.775 141, 81 140.775, 81 140.500 C 81 140.225, 80.775 140, 80.500 140 C 80.225 140, 80 140.225, 80 140.500 M 78.708 143.318 C 78.394 144.136, 78.330 144.997, 78.565 145.232 C 78.800 145.467, 81.937 145.265, 85.537 144.782 C 89.136 144.300, 93.075 143.464, 94.290 142.925 C 96.386 141.994, 96.371 141.971, 94 142.469 C 92.625 142.757, 89.093 143.287, 86.151 143.646 C 82.384 144.106, 80.577 143.934, 80.040 143.065 C 79.463 142.131, 79.140 142.193, 78.708 143.318 M 19 143.941 C 19 144.459, 19.445 145.157, 19.989 145.493 C 20.555 145.843, 20.723 145.442, 20.382 144.552 C 20.054 143.698, 19.609 143, 19.393 143 C 19.177 143, 19 143.423, 19 143.941 M 510.011 145.835 C 508.451 147.395, 506.469 151.051, 505.605 153.959 C 504.741 156.867, 504.278 159.641, 504.576 160.123 C 504.874 160.606, 511.175 161, 518.578 161 L 532.038 161 531.429 158.250 C 531.094 156.738, 530.376 154.037, 529.832 152.249 C 529.289 150.461, 527.495 147.649, 525.845 145.999 C 523.313 143.467, 522.068 143, 517.846 143 C 513.688 143, 512.369 143.478, 510.011 145.835 M 79 144.500 C 79 144.775, 79.225 145, 79.500 145 C 79.775 145, 80 144.775, 80 144.500 C 80 144.225, 79.775 144, 79.500 144 C 79.225 144, 79 144.225, 79 144.500 M 167.224 147.072 C 165.972 148.616, 160.909 152.191, 155.974 155.015 C 151.038 157.839, 147 160.375, 147 160.649 C 147 160.923, 149.588 159.682, 152.750 157.892 C 155.912 156.101, 160.075 153.647, 162 152.438 C 163.925 151.229, 166.589 149.062, 167.921 147.624 C 169.252 146.185, 170.152 144.840, 169.921 144.636 C 169.689 144.431, 168.476 145.527, 167.224 147.072 M 21 147.378 C 21 147.585, 21.788 148.373, 22.750 149.128 C 24.336 150.371, 24.371 150.336, 23.128 148.750 C 22.373 147.787, 21.585 147, 21.378 147 C 21.170 147, 21 147.170, 21 147.378 M 25.500 151 C 25.840 151.550, 26.343 152, 26.618 152 C 26.893 152, 26.840 151.550, 26.500 151 C 26.160 150.450, 25.657 150, 25.382 150 C 25.107 150, 25.160 150.450, 25.500 151 M 28 152.430 C 28 152.705, 28.900 153.411, 30 154 C 31.100 154.589, 32 154.845, 32 154.570 C 32 154.295, 31.100 153.589, 30 153 C 28.900 152.411, 28 152.155, 28 152.430 M 33 155.449 C 33 155.724, 34.350 156.647, 36 157.500 C 37.650 158.353, 39 158.826, 39 158.551 C 39 158.276, 37.650 157.353, 36 156.500 C 34.350 155.647, 33 155.174, 33 155.449 M 40 159.449 C 40 159.724, 41.350 160.647, 43 161.500 C 44.650 162.353, 46 162.826, 46 162.551 C 46 162.276, 44.650 161.353, 43 160.500 C 41.350 159.647, 40 159.174, 40 159.449 M 371 160.749 C 369.625 160.984, 367.501 162.102, 366.279 163.235 C 365.057 164.367, 363.560 166.804, 362.950 168.651 C 362.341 170.497, 362.135 173.337, 362.492 174.962 C 362.848 176.587, 364.700 179.285, 366.605 180.958 C 369.086 183.137, 371.086 184, 373.652 184 C 376.481 184, 378.053 183.183, 381.118 180.118 C 384.375 176.861, 385 175.570, 385 172.103 C 385 168.803, 384.345 167.288, 381.750 164.581 C 379.962 162.716, 377.375 160.995, 376 160.757 C 374.625 160.519, 372.375 160.515, 371 160.749 M 145 161.500 C 145 161.775, 145.225 162, 145.500 162 C 145.775 162, 146 161.775, 146 161.500 C 146 161.225, 145.775 161, 145.500 161 C 145.225 161, 145 161.225, 145 161.500 M 142.405 163.155 C 141.962 163.870, 142.130 164.038, 142.845 163.595 C 143.480 163.203, 144 162.684, 144 162.441 C 144 162.198, 143.802 162, 143.559 162 C 143.316 162, 142.797 162.520, 142.405 163.155 M 47 163.500 C 47 163.775, 47.225 164, 47.500 164 C 47.775 164, 48 163.775, 48 163.500 C 48 163.225, 47.775 163, 47.500 163 C 47.225 163, 47 163.225, 47 163.500 M 49 164.500 C 49 164.775, 49.225 165, 49.500 165 C 49.775 165, 50 164.775, 50 164.500 C 50 164.225, 49.775 164, 49.500 164 C 49.225 164, 49 164.225, 49 164.500 M 140 164.500 C 140 164.775, 140.225 165, 140.500 165 C 140.775 165, 141 164.775, 141 164.500 C 141 164.225, 140.775 164, 140.500 164 C 140.225 164, 140 164.225, 140 164.500 M 131.270 169.325 C 127.293 171.691, 123.693 174.008, 123.270 174.474 C 122.846 174.940, 122.950 175.089, 123.500 174.805 C 124.050 174.522, 127.763 172.373, 131.750 170.031 C 135.738 167.689, 139 165.598, 139 165.386 C 139 165.174, 138.887 165.005, 138.750 165.011 C 138.613 165.017, 135.246 166.959, 131.270 169.325 M 52 166.500 C 52 166.775, 52.225 167, 52.500 167 C 52.775 167, 53 166.775, 53 166.500 C 53 166.225, 52.775 166, 52.500 166 C 52.225 166, 52 166.225, 52 166.500 M 54 167.500 C 54 167.775, 54.225 168, 54.500 168 C 54.775 168, 55 167.775, 55 167.500 C 55 167.225, 54.775 167, 54.500 167 C 54.225 167, 54 167.225, 54 167.500 M 57 169.500 C 57 169.775, 57.225 170, 57.500 170 C 57.775 170, 58 169.775, 58 169.500 C 58 169.225, 57.775 169, 57.500 169 C 57.225 169, 57 169.225, 57 169.500 M 59 170.500 C 59 170.775, 59.225 171, 59.500 171 C 59.775 171, 60 170.775, 60 170.500 C 60 170.225, 59.775 170, 59.500 170 C 59.225 170, 59 170.225, 59 170.500 M 61 171.500 C 61 171.775, 61.225 172, 61.500 172 C 61.775 172, 62 171.775, 62 171.500 C 62 171.225, 61.775 171, 61.500 171 C 61.225 171, 61 171.225, 61 171.500 M 64 173.500 C 64 173.775, 64.225 174, 64.500 174 C 64.775 174, 65 173.775, 65 173.500 C 65 173.225, 64.775 173, 64.500 173 C 64.225 173, 64 173.225, 64 173.500 M 66 174.430 C 66 174.705, 66.900 175.411, 68 176 C 69.100 176.589, 70 176.845, 70 176.570 C 70 176.295, 69.100 175.589, 68 175 C 66.900 174.411, 66 174.155, 66 174.430 M 121 175.500 C 121 175.775, 121.225 176, 121.500 176 C 121.775 176, 122 175.775, 122 175.500 C 122 175.225, 121.775 175, 121.500 175 C 121.225 175, 121 175.225, 121 175.500 M 114.205 179.178 C 111.293 180.864, 109.107 182.440, 109.346 182.680 C 109.586 182.919, 112.081 181.701, 114.891 179.972 C 117.701 178.243, 120 176.642, 120 176.414 C 120 176.186, 119.888 176.025, 119.750 176.056 C 119.612 176.087, 117.117 177.492, 114.205 179.178 M 71 177.430 C 71 177.705, 71.900 178.411, 73 179 C 74.100 179.589, 75 179.845, 75 179.570 C 75 179.295, 74.100 178.589, 73 178 C 71.900 177.411, 71 177.155, 71 177.430 M 76 180.500 C 76 180.775, 76.225 181, 76.500 181 C 76.775 181, 77 180.775, 77 180.500 C 77 180.225, 76.775 180, 76.500 180 C 76.225 180, 76 180.225, 76 180.500 M 78.500 182 C 78.840 182.550, 79.343 183, 79.618 183 C 79.893 183, 79.840 182.550, 79.500 182 C 79.160 181.450, 78.657 181, 78.382 181 C 78.107 181, 78.160 181.450, 78.500 182 M 81 183.500 C 81 183.775, 81.225 184, 81.500 184 C 81.775 184, 82 183.775, 82 183.500 C 82 183.225, 81.775 183, 81.500 183 C 81.225 183, 81 183.225, 81 183.500 M 105.441 184.555 C 103.577 186.049, 103.589 186.067, 105.750 185.020 C 106.987 184.420, 108 183.720, 108 183.465 C 108 183.209, 107.861 183, 107.691 183 C 107.521 183, 106.509 183.700, 105.441 184.555 M 83 184.454 C 83 184.732, 84.782 185.868, 86.960 186.980 C 89.341 188.194, 92.631 188.944, 95.210 188.859 L 99.500 188.718 94.500 188.065 C 91.750 187.705, 88.037 186.632, 86.250 185.680 C 84.463 184.728, 83 184.176, 83 184.454 M 101 187 C 100.099 187.582, 99.975 187.975, 100.691 187.985 C 101.346 187.993, 102.160 187.550, 102.500 187 C 102.840 186.450, 102.979 186.007, 102.809 186.015 C 102.639 186.024, 101.825 186.467, 101 187" stroke="none" fill="#26c1a8" fill-rule="evenodd"/><path d="M 88 19.289 C 86.625 20.039, 71.388 28.901, 54.141 38.982 C 30.630 52.724, 22.309 58.086, 20.894 60.406 C 19.129 63.300, 19.007 66.055, 19.004 103.102 C 19 142.533, 19.010 142.718, 21.250 145.993 C 22.902 148.408, 31.212 153.788, 52.500 166.223 C 68.450 175.540, 83.623 184.252, 86.217 185.582 C 88.996 187.006, 92.658 188, 95.132 188 C 98.677 188, 102.458 186.182, 119.415 176.325 C 130.462 169.903, 145.254 161.286, 152.286 157.176 C 159.319 153.065, 166.181 148.385, 167.536 146.774 L 170 143.847 170 103.328 C 170 67.253, 169.817 62.498, 168.328 59.978 C 167.133 57.955, 157.224 51.639, 133.578 37.830 C 104.120 20.627, 99.953 18.481, 95.500 18.219 C 92.615 18.050, 89.442 18.502, 88 19.289 M 117 64.684 C 115.625 64.921, 109.775 66.231, 104 67.596 C 98.225 68.960, 89.801 71.866, 85.281 74.052 C 80.038 76.588, 75.129 79.924, 71.725 83.264 C 68.790 86.144, 65.386 90.586, 64.160 93.136 C 62.935 95.685, 61.532 100.233, 61.042 103.243 C 60.522 106.440, 60.521 111.659, 61.041 115.799 C 61.530 119.696, 63.295 126.423, 64.963 130.748 C 66.631 135.073, 68.559 139.382, 69.248 140.324 C 70.352 141.833, 71.085 141.057, 75.440 133.768 C 78.157 129.221, 83.028 121.450, 86.265 116.500 C 91.888 107.898, 92.125 107.279, 91.621 102.500 L 91.092 97.500 92.642 100.978 L 94.192 104.457 96.346 101.488 C 97.531 99.855, 99.797 97.037, 101.383 95.226 C 102.969 93.415, 104.480 92.147, 104.741 92.408 C 105.002 92.669, 103.661 95.497, 101.761 98.691 C 99.860 101.886, 95.537 109.784, 92.153 116.243 C 88.769 122.702, 86 128.277, 86 128.632 C 86 128.988, 88.265 129.010, 91.032 128.683 C 93.800 128.355, 95.847 128.439, 95.580 128.871 C 95.314 129.302, 92.435 130.460, 89.183 131.445 C 83.476 133.173, 83.194 133.420, 81.054 138.584 C 79.834 141.525, 78.986 144.264, 79.168 144.670 C 79.351 145.075, 81.075 145.293, 83 145.154 C 84.925 145.015, 90.100 144.011, 94.500 142.922 C 98.900 141.834, 105.309 139.540, 108.743 137.826 C 112.383 136.008, 117.081 132.492, 120.011 129.395 C 122.775 126.472, 125.946 121.958, 127.059 119.362 C 128.172 116.766, 129.589 111.384, 130.208 107.400 C 131.051 101.981, 131.042 98.093, 130.174 91.953 C 129.535 87.440, 127.520 79.418, 125.695 74.126 C 123.661 68.229, 121.819 64.455, 120.938 64.378 C 120.147 64.309, 118.375 64.446, 117 64.684" stroke="none" fill="#2e3d5c" fill-rule="evenodd"/></svg>