<?xml version="1.0" standalone="no"?>
<!DOCTYPE svg PUBLIC "-//W3C//DTD SVG 20010904//EN"
 "http://www.w3.org/TR/2001/REC-SVG-20010904/DTD/svg10.dtd">
<svg version="1.0" xmlns="http://www.w3.org/2000/svg"
 width="614.000000pt" height="215.000000pt" viewBox="0 0 614.000000 215.000000"
 preserveAspectRatio="xMidYMid meet">

<g transform="translate(0.000000,215.000000) scale(0.100000,-0.100000)"
fill="#000000" stroke="none">
<path d="M885 1953 c-35 -19 -610 -353 -642 -373 -12 -8 -26 -24 -32 -37 -15
-32 -16 -815 -1 -842 15 -29 58 -58 215 -148 77 -44 202 -117 278 -162 254
-150 234 -147 387 -59 467 269 576 336 593 369 16 31 17 67 15 429 -3 351 -5
399 -20 422 -10 14 -100 73 -215 140 -109 63 -261 152 -338 196 -150 88 -182
96 -240 65z m380 -555 c37 -107 39 -120 39 -238 1 -108 -2 -133 -22 -187 -41
-106 -121 -181 -246 -228 -70 -26 -231 -59 -245 -50 -10 6 24 101 43 122 6 6
34 18 61 27 l50 15 -42 0 c-24 1 -43 5 -43 10 0 10 79 163 142 275 21 38 37
71 35 73 -2 2 -23 -21 -47 -52 -23 -30 -44 -55 -46 -55 -2 0 -10 12 -18 27
-14 27 -14 27 -9 -19 5 -44 2 -51 -79 -179 -47 -74 -96 -154 -110 -177 l-26
-44 -30 65 c-50 105 -66 173 -66 272 0 80 3 97 30 155 73 154 206 229 519 294
69 14 69 14 110 -106z"/>
</g>
</svg>
